<?xml version="1.0" standalone="no"?>
<!DOCTYPE svg PUBLIC "-//W3C//DTD SVG 20010904//EN"
 "http://www.w3.org/TR/2001/REC-SVG-20010904/DTD/svg10.dtd">
<svg version="1.0" xmlns="http://www.w3.org/2000/svg"
 width="103.000000pt" height="23.000000pt" viewBox="0 0 103.000000 23.000000"
 preserveAspectRatio="xMidYMid meet">

<g transform="translate(0.000000,23.000000) scale(0.100000,-0.100000)"
fill="#000000" stroke="none">
<path d="M677 224 c-4 -4 -7 -20 -7 -35 l0 -28 -25 24 c-30 31 -77 33 -105 5
-11 -11 -20 -25 -20 -31 0 -5 -10 -3 -22 5 -31 22 -68 20 -95 -6 l-23 -21 0
21 c0 19 -5 22 -47 22 -29 0 -53 -6 -65 -17 -17 -15 -18 -15 -18 0 0 14 -10
17 -54 17 -45 0 -58 -4 -70 -22 -16 -22 -16 -22 -16 15 0 33 -3 37 -25 37 -24
0 -25 -3 -26 -57 0 -32 -3 -52 -6 -45 -2 6 -16 12 -29 12 -19 0 -24 -5 -24
-25 0 -48 66 -60 99 -19 15 19 21 22 21 11 0 -23 32 -37 83 -37 37 0 48 -5 61
-25 12 -19 25 -25 51 -25 42 0 65 22 65 62 l0 31 23 -21 c29 -27 68 -28 92 -2
18 19 18 19 45 0 36 -26 71 -25 104 1 l26 20 0 -20 c0 -16 6 -21 25 -21 23 0
25 4 25 40 0 22 5 40 10 40 6 0 10 -13 10 -28 0 -15 5 -33 12 -40 16 -16 58
-15 59 1 1 6 3 27 5 45 4 48 18 60 69 60 l45 -1 0 -52 0 -52 -42 0 c-24 -1
-49 4 -55 9 -9 7 -13 7 -13 0 0 -14 26 -22 76 -22 l44 0 0 65 0 65 -54 0 c-30
0 -58 -5 -61 -11 -4 -6 -16 0 -29 15 -25 30 -51 33 -61 9 -7 -16 -9 -14 -14 7
-7 25 -30 37 -44 24z m33 -19 c0 -8 -7 -15 -15 -15 -8 0 -15 7 -15 15 0 8 7
15 15 15 8 0 15 -7 15 -15z m-610 -63 c0 -32 -5 -63 -12 -70 -15 -15 -51 -15
-66 0 -17 17 -15 38 3 38 8 0 15 -4 15 -10 0 -5 7 -10 15 -10 12 0 15 13 15
55 0 42 3 55 15 55 12 0 15 -13 15 -58z m531 48 c33 -18 22 -32 -20 -25 -34 6
-41 3 -51 -14 -15 -29 3 -61 35 -61 31 0 43 20 16 27 -33 9 -24 23 14 23 28 0
35 -4 35 -20 0 -28 -35 -60 -65 -60 -30 0 -75 41 -75 68 0 52 63 87 111 62z
m153 -12 c13 -14 15 -23 8 -26 -15 -5 -16 -62 -2 -62 6 0 10 -7 10 -16 0 -10
-7 -14 -22 -12 -18 2 -24 11 -26 38 -2 19 -9 41 -15 49 -9 11 -9 15 1 18 6 3
12 11 12 19 0 20 13 17 34 -8z m-544 -63 l0 -53 -47 2 c-40 1 -50 5 -62 27
-13 24 -13 29 2 52 14 21 24 25 62 25 l45 -1 0 -52z m130 -14 c0 -39 -5 -72
-12 -79 -17 -17 -64 -15 -84 5 -20 20 -1 32 21 13 17 -14 45 -6 45 12 0 9 -14
13 -45 12 -25 -1 -45 3 -45 8 0 5 4 6 10 3 6 -4 7 5 4 23 -10 49 9 71 61 70
l45 -1 0 -66z m127 43 c15 -24 15 -29 2 -53 -27 -49 -101 -33 -101 22 0 59 66
80 99 31z m213 -29 c0 -42 -3 -55 -15 -55 -12 0 -15 13 -15 55 0 42 3 55 15
55 12 0 15 -13 15 -55z m-112 38 c-10 -2 -18 -14 -18 -26 0 -14 -3 -18 -10
-11 -16 16 0 44 24 43 16 -1 17 -2 4 -6z m205 -33 c3 -11 1 -20 -4 -20 -5 0
-9 9 -9 20 0 11 2 20 4 20 2 0 6 -9 9 -20z"/>
<path d="M157 127 c-8 -21 8 -39 29 -35 27 5 25 42 -2 46 -12 2 -24 -3 -27
-11z m38 -6 c7 -12 -12 -24 -25 -16 -11 7 -4 25 10 25 5 0 11 -4 15 -9z"/>
<path d="M300 135 c-16 -20 -5 -45 20 -45 14 0 20 7 20 24 0 28 -24 41 -40 21z
m30 -20 c0 -8 -7 -15 -15 -15 -8 0 -15 7 -15 15 0 8 7 15 15 15 8 0 15 -7 15
-15z"/>
<path d="M443 143 c-21 -8 -16 -53 6 -53 10 0 21 6 24 14 7 18 -14 45 -30 39z
m19 -28 c0 -5 -5 -11 -11 -13 -6 -2 -11 4 -11 13 0 9 5 15 11 13 6 -2 11 -8
11 -13z"/>
<path d="M950 115 c0 -63 1 -65 25 -65 23 0 25 4 25 40 0 29 4 40 15 40 9 0
15 9 15 25 0 23 -4 25 -40 25 l-40 0 0 -65z m70 40 c0 -7 -7 -15 -15 -19 -9
-3 -15 -19 -15 -41 0 -24 -4 -35 -15 -35 -11 0 -15 13 -15 54 0 54 0 55 30 54
17 -1 30 -7 30 -13z"/>
<path d="M863 143 c-7 -3 -13 -16 -13 -29 0 -17 5 -24 20 -24 11 0 23 7 27 16
7 18 -16 44 -34 37z m27 -28 c0 -8 -7 -15 -15 -15 -8 0 -15 7 -15 15 0 8 7 15
15 15 8 0 15 -7 15 -15z"/>
</g>
</svg>
